PathFileType	4	(X/Y/Z)	pose_F01_0-96.trc
DataRate	CameraRate	NumFrames	NumMarkers	Units	OrigDataRate	OrigDataStartFrame	OrigNumFrames
30	30	9	21	m	30	60	96
Frame#	Time	CHip			RHip			RKnee			RAnkle			RBigToe			RSmallToe			RHeel			LHip			LKnee			LAnkle			LBigToe			LSmallToe			LHeel			Neck			Nose			RShoulder			RElbow			RWrist			LShoulder			LElbow			LWrist			
		X1	Y1	Z1	X2	Y2	Z2	X3	Y3	Z3	X4	Y4	Z4	X5	Y5	Z5	X6	Y6	Z6	X7	Y7	Z7	X8	Y8	Z8	X9	Y9	Z9	X10	Y10	Z10	X11	Y11	Z11	X12	Y12	Z12	X13	Y13	Z13	X14	Y14	Z14	X15	Y15	Z15	X16	Y16	Z16	X17	Y17	Z17	X18	Y18	Z18	X19	Y19	Z19	X20	Y20	Z20	X21	Y21	Z21	
60	2.0	-0.17177341202819282	1.891813347527955	-0.5978116471332743	-0.18668654947625665	1.8884173097412356	-0.5338369196147411	-0.20472030505009045	1.7428508669361784	-0.49526342211899993	-0.18299246801275532	1.6117063586540987	-0.5123611679472647	-0.20000578502623836	1.5704297751129028	-0.4842937843640292	-0.20146525302598386	1.5759805349215175	-0.4559902143590937	-0.17632941832652496	1.60230175710082	-0.5277366370032547	-0.160721490025216	1.8923643112330601	-0.6598367312156581	-0.1559279395573592	1.7461543385834009	-0.6480081377908297	-0.16048015404719568	1.6060524670919936	-0.6262532423323418	-0.1809240683282379	1.5602733340640784	-0.5998664818903905	-0.16839953245879097	1.5654645904712592	-0.6427507408136044	-0.1577852361126013	1.59739734539378	-0.6151567310345382	-0.16073966117832625	2.047413016417497	-0.616443845088282	-0.18205739356543116	2.1096958865988387	-0.6103495535311405	-0.17673076233448207	2.0447882261147674	-0.5290493061037722	-0.18696954854752154	1.9650093054158984	-0.4944325919075841	-0.19377666995045653	1.8891777782875867	-0.46512249734479033	-0.14114857244211412	2.0517216005433925	-0.7089920985931363	-0.14900628190891468	1.972202177573215	-0.7203497841146387	-0.1832781262737434	1.9021967361583119	-0.714234225208358
61	2.033333333333333	-0.17787529881314162	1.882551999042815	-0.5981256162429166	-0.19098627865058912	1.8804489826807336	-0.528152571203097	-0.19855172737210078	1.735755293008607	-0.5187470121714894	-0.18419418952991726	1.602454089436139	-0.5094959962758547	-0.20675834176429686	1.5646999898230767	-0.47604537478303144	-0.20544422194710077	1.5726294590693641	-0.4512840588913375	-0.17819210159897284	1.592647337371205	-0.523958588120573	-0.16386754899231357	1.8842987122492132	-0.6594170293891486	-0.16483477045050687	1.7403854620024781	-0.6379226294340058	-0.1615859330923747	1.6015884088920787	-0.6203362377707943	-0.18092585866371913	1.5589466502766098	-0.6080527266498357	-0.17061510030923796	1.5653603784611316	-0.6406759869747327	-0.15528499538980375	1.5919565423805073	-0.6044661673009809	-0.16259991202801463	2.0465528160964435	-0.622618518693046	-0.18389776854188278	2.1088683881606474	-0.6165539168496637	-0.1796562910578938	2.0423386170114473	-0.5296786528052628	-0.18904621741332245	1.964018509424152	-0.4935351900332842	-0.19692686242360768	1.8869986449195122	-0.45705352940825167	-0.1437564265267668	2.0508898526414896	-0.7181851256109124	-0.1502415017737648	1.967472495817534	-0.7235853171812271	-0.1767399904176705	1.8930141217250356	-0.7286561869724958
62	2.066666666666667	-0.18347295454779142	1.8815460131270778	-0.5968463617319208	-0.19531308351214863	1.879700449838134	-0.5323266907382284	-0.193995448743384	1.7341191581239572	-0.5324862512779164	-0.1803061394335833	1.6011380213947917	-0.5133584760769518	-0.20899554404480103	1.566132337815221	-0.4826906070751907	-0.20393003369737278	1.5723742291137708	-0.46188514357105304	-0.17361399125620683	1.5910338146486498	-0.5237624918072362	-0.17029516933923158	1.8834035161303042	-0.6609720182613639	-0.17696366576736097	1.7358892811795918	-0.6288003560203862	-0.16577790983887533	1.5972325131253766	-0.6156280496257589	-0.17946427472002718	1.5605159141196874	-0.6143196905407367	-0.1712862240345175	1.5667587748002467	-0.6445369972868105	-0.15914892305012523	1.5890421844440115	-0.6001728341813912	-0.16655271095837057	2.0468064494165317	-0.6271583704378637	-0.18686612845085293	2.1115903558226004	-0.6185633904015844	-0.1836871822397699	2.042675085330691	-0.5342479813496168	-0.19112288627912333	1.9630277134324057	-0.49263778815898435	-0.20007705489675884	1.8848195115514375	-0.44898456147171295	-0.14683534901612258	2.0508200887706267	-0.7197036546586553	-0.15350320027815115	1.9667902571475726	-0.736019669194256	-0.16316387741584368	1.8874911984183727	-0.7504752930366818
63	2.1	-0.184297452571102	1.8882529014575433	-0.6010914516559636	-0.19519338047844004	1.88751303776166	-0.5337284762963536	-0.19376314017596757	1.7490632286485335	-0.5434806490183764	-0.1789800923318191	1.6066730845755284	-0.5149494243599096	-0.21332074349381905	1.567902521517841	-0.477579244239668	-0.20553198861183797	1.5761022018389494	-0.455621323688465	-0.17406545827351053	1.594671278093387	-0.5232190628417184	-0.16898535644623486	1.8901690230546795	-0.6675273919408523	-0.20141774603936632	1.7440315132347453	-0.6080960144177116	-0.16918860089211482	1.603443011977823	-0.6130999220824457	-0.1837668910513385	1.560074574308702	-0.6096886620180576	-0.17763320148928113	1.5680544839297754	-0.6383073841593161	-0.1604474884748687	1.5933137969103324	-0.5993872309731856	-0.16758823556094463	2.0457801242047062	-0.630339212282709	-0.19394852306724925	2.1116526978287378	-0.615049299482662	-0.18461099550148627	2.043859509038253	-0.5372054536470913	-0.19724184165314002	1.9607121280637585	-0.485782683313808	-0.2102377186087919	1.8840577314839475	-0.4289557876844565	-0.1477694269758755	2.049829209472782	-0.7228425513282403	-0.14554001925966534	1.967296343162115	-0.7486422977664353	-0.13860091973796068	1.8901624076838768	-0.7799544990404678
64	2.1333333333333333	-0.18509952174119781	1.8909828900359689	-0.6047398901323345	-0.19812931557631863	1.8905715865937847	-0.5439961925486143	-0.19183777509027664	1.7526574766261624	-0.5546133190910051	-0.17268737870795964	1.621957605755504	-0.5236221663384145	-0.21164038487320558	1.5760889062486605	-0.48015867493231773	-0.20517020443533363	1.5838184662236465	-0.4607772986944755	-0.16295307167406764	1.6079410487804484	-0.5364075335154592	-0.16900372714181405	1.8941693705534004	-0.6682592006406795	-0.2197005233851135	1.7500448980153358	-0.5976350449389238	-0.18425267549371835	1.604132189936715	-0.5974781341268205	-0.21523954592645006	1.5570327264587571	-0.5810038297870745	-0.1976148460616286	1.5675087880846783	-0.6178738881779268	-0.16335798077535238	1.5922375655825063	-0.5922441102661838	-0.17057978474756405	2.0457750605698424	-0.6311516240084187	-0.19605343753133853	2.1115976518031783	-0.612898759138963	-0.19169492086467707	2.041648208282207	-0.5339847865979315	-0.20499925051649778	1.9653431138184188	-0.47734594227803334	-0.2221826614370403	1.8979910304748409	-0.4122374113093236	-0.14862743430968003	2.04985545995479	-0.725742000320127	-0.13734587346970023	1.9691511569221307	-0.7615188522589843	-0.12438797289031676	1.8955596579817078	-0.8034994554791375
65	2.1666666666666665	-0.18495694881845576	1.89217874045341	-0.6048189205843054	-0.19507224516102648	1.8917014950502609	-0.5431407298780425	-0.1930133124479553	1.7629260990724829	-0.5590755432248438	-0.1737414213450005	1.639521520614576	-0.533253778144436	-0.21800997379835965	1.5897147036831545	-0.4877244775098326	-0.2102928687855923	1.5958994989696849	-0.46534111425062286	-0.16299161779580207	1.619971284404024	-0.5400255534960932	-0.1717221932443478	1.8941320707538738	-0.6688916298780955	-0.22952788933365756	1.753158093441888	-0.5833261899265211	-0.18100930373485905	1.606936478956511	-0.6013058367033783	-0.23601747333674236	1.5576285889141763	-0.5557684048890038	-0.22833771889236668	1.5618513270014505	-0.5854356947292171	-0.1637873376274756	1.5958408305845624	-0.596440340566107	-0.1726185354875682	2.0457992370058014	-0.6289545079912099	-0.19604870621897766	2.1115594851061985	-0.6129577958944297	-0.19176153639678192	2.0429806349241986	-0.534444802811047	-0.20988716102060526	1.967416760691542	-0.46790399321327125	-0.23424745809717687	1.903446211204191	-0.3857703165386456	-0.15068289613096	2.052323917231135	-0.7238299176026742	-0.13493052836450967	1.9757161331549384	-0.7652307992016245	-0.11061751854804308	1.9031706708071303	-0.8220939502709443
66	2.2	-0.18284813505730999	1.8922536718086866	-0.6071240888120008	-0.194949939892369	1.8904160397207186	-0.5429612645362294	-0.19124114328955516	1.7655992850346947	-0.5569339168735714	-0.17546990028052978	1.6403100650290985	-0.5313696948383606	-0.2160144177242847	1.5870988019166534	-0.4895232157384747	-0.21095325200300222	1.5945542157184505	-0.46434522317042254	-0.1630301639175365	1.6320015200275992	-0.543643573476727	-0.16954261906567167	1.8942252567303528	-0.6712899098883863	-0.23054813985672515	1.7543265882652819	-0.5782433756750591	-0.18193324562533295	1.6139845816873841	-0.6017441522364565	-0.23519694835089	1.5538354904977039	-0.5556600969263246	-0.23002874597597597	1.559472707250113	-0.5831542153993737	-0.16261561537116592	1.6005540956014161	-0.5987023386504077	-0.17250593694538802	2.046914865726093	-0.6289132754955591	-0.19408037114922005	2.1103585050522473	-0.6144892326578755	-0.19162392942113068	2.044190053996496	-0.5343835553050584	-0.2096864688438225	1.9722921566363694	-0.4682502235572663	-0.23856444637661745	1.9105704427324484	-0.377046016061848	-0.14856313225459303	2.0524511721103247	-0.7260363877222673	-0.12811980627611141	1.9785283409870116	-0.7724129853307543	-1.2557722790012278	1.8427650769613835	0.3472901794809552
67	2.2333333333333334	-0.18416837242513087	1.8935012222918721	-0.6020425926470335	-0.19489571759883592	1.8929816823434744	-0.5432132326115231	-0.18849724267426063	1.7593788801126373	-0.558968456463188	-0.17051906743861833	1.6179886410684816	-0.5302166404430594	-0.21278998290499462	1.5707075556939925	-0.48722115995691884	-0.2056549358355914	1.5776082928758068	-0.46399545874206066	-0.15849941407543514	1.6061309680466525	-0.545655777392946	-0.17097064900113046	1.8953844175052352	-0.6660695502223424	-0.22854889197344194	1.7520314841511295	-0.5885344485858703	-0.17667077834534634	1.615304979342525	-0.6069388239631631	-0.22982323751596576	1.5536686953110115	-0.5565095013749439	-0.20553887335314175	1.5649322359242528	-0.609308671336822	-0.15912792377899893	1.6000224114814166	-0.6019142285363077	-0.172433093667336	2.049365698466992	-0.629286690950732	-0.19489568597365	2.110420098534772	-0.6173395265860547	-0.18967039039159167	2.044264927149884	-0.5365255583463018	-0.20855461619487797	1.9747365382107367	-0.4655538508749183	-0.23238556648462075	1.9195249954268263	-0.38478567615635206	-0.14842508925035555	2.054900420258038	-0.7258169980970506	-0.12774995028995448	1.9832933896075198	-0.7727551829953024	-1.2620741762057202	1.8393930563412642	0.35365588192812836
68	2.2666666666666666	-0.18620905821560552	1.8893462756595492	-0.599122301837114	-0.19609091916881866	1.8876434339513763	-0.5369840331145292	-0.19339739266057285	1.7403406938917219	-0.5424653104769906	-0.17307026504238288	1.6020380726776615	-0.5212326465568093	-0.21495972159770044	1.5591060226819953	-0.48871536465081594	-0.20850107648443678	1.5644575222166202	-0.4644931273496951	-0.16488968632091827	1.5904739607067016	-0.5325874337578183	-0.1710216146279555	1.8913760487452191	-0.6654166796343428	-0.21067715176107862	1.7419326147916878	-0.6020623330843712	-0.17157993303063385	1.6028053710345833	-0.6063650887713498	-0.18765102472309586	1.5610284155454974	-0.6102472790798206	-0.18104900073030755	1.5703917645983927	-0.6354631272742702	-0.16264200598938358	1.5917702507375835	-0.5929499505476211	-0.1705404552115496	2.0458329348655053	-0.6310909097792716	-0.1939565698599205	2.1102238049432778	-0.6144810631311884	-0.1897370302311321	2.042972658524376	-0.5366326411539133	-0.20884341506167142	1.9685364357105963	-0.4645994206077028	-0.2365098767442622	1.907786184630164	-0.3782571906898327	-0.14777431483503684	2.0509761301602554	-0.722663139214616	-0.1271690744444519	1.975689527685815	-0.7688554183046604	-1.2812299920889507	1.8316946668286305	0.3842762303103624
